<svg width="18" height="11" fill="none" xmlns="http://www.w3.org/2000/svg"><g clip-path="url(#clip0_1972_248)"><path d="M15.825 7.018L9.525 1A.658.658 0 009.28.849.861.861 0 009 .804c-.1 0-.194.015-.281.045A.658.658 0 008.475 1L2.156 7.018a.827.827 0 00-.262.625c0 .25.093.464.28.643a.922.922 0 00.657.268c.25 0 .469-.09.656-.268L9 3.036l5.512 5.25c.175.166.39.25.647.25.256 0 .478-.09.666-.268a.837.837 0 00.281-.625.838.838 0 00-.281-.625z" fill="#777"/></g><defs><clipPath id="clip0_1972_248"><path fill="#fff" transform="matrix(0 1 1 0 0 .5)" d="M0 0h10v18H0z"/></clipPath></defs></svg>