<svg width="18" height="10" fill="none" xmlns="http://www.w3.org/2000/svg"><g clip-path="url(#clip0_1972_406)"><path d="M2.175 3.482l6.3 6.018a.658.658 0 00.244.151c.087.03.181.045.281.045.1 0 .194-.015.281-.045a.658.658 0 00.244-.151l6.319-6.018a.827.827 0 00.262-.625.856.856 0 00-.28-.643.922.922 0 00-.657-.268c-.25 0-.469.09-.656.268L9 7.464l-5.512-5.25a.902.902 0 00-.647-.25.933.933 0 00-.666.268.837.837 0 00-.281.625c0 .238.094.447.281.625z" fill="#777"/></g><defs><clipPath id="clip0_1972_406"><path fill="#fff" transform="matrix(0 -1 -1 0 18 10)" d="M0 0h10v18H0z"/></clipPath></defs></svg>