<svg width="17" height="10" fill="none" xmlns="http://www.w3.org/2000/svg"><g clip-path="url(#clip0_2128_4303)"><path d="M15.046 7.464l-5.95-6.018a.617.617 0 00-.23-.151.773.773 0 00-.266-.045.772.772 0 00-.265.045.617.617 0 00-.23.151L2.136 7.464a.852.852 0 00-.248.625c0 .25.088.465.265.643a.846.846 0 00.62.268c.236 0 .443-.09.62-.268L8.6 3.482l5.206 5.25c.166.167.37.25.611.25.242 0 .452-.09.629-.268a.86.86 0 00.266-.625.86.86 0 00-.266-.625z" fill="#F57520"/></g><defs><clipPath id="clip0_2128_4303"><path fill="#fff" transform="matrix(0 1 1 0 0 0)" d="M0 0h10v17H0z"/></clipPath></defs></svg>