<svg width="21" height="13" fill="none" xmlns="http://www.w3.org/2000/svg"><g clip-path="url(#clip0_8199_4788)"><path d="M18.171 8.046L11.085.913a.734.734 0 00-.274-.179.924.924 0 00-.317-.053.925.925 0 00-.316.053.735.735 0 00-.274.18L2.796 8.045a1.007 1.007 0 00-.295.74c0 .297.105.55.316.762.211.212.457.318.738.318.282 0 .528-.106.739-.318l6.2-6.222 6.2 6.222c.198.198.44.297.728.297.289 0 .538-.106.75-.318.21-.211.316-.458.316-.74 0-.283-.106-.53-.317-.741z" fill="#fff"/></g><defs><clipPath id="clip0_8199_4788"><path fill="#fff" transform="matrix(0 1 1 0 .371 .32)" d="M0 0h11.852v20.247H0z"/></clipPath></defs></svg>