<svg width="17" height="10" fill="none" xmlns="http://www.w3.org/2000/svg"><g clip-path="url(#clip0_2128_4388)"><path d="M1.954 2.536l5.95 6.018c.07.071.148.121.23.151.083.03.171.045.266.045a.772.772 0 00.265-.045c.083-.03.16-.08.23-.151l5.968-6.018a.852.852 0 00.248-.625.88.88 0 00-.265-.643.846.846 0 00-.62-.268.846.846 0 00-.62.268L8.4 6.518l-5.206-5.25a.826.826 0 00-.611-.25.856.856 0 00-.629.268.86.86 0 00-.266.625.86.86 0 00.266.625z" fill="#F57520"/></g><defs><clipPath id="clip0_2128_4388"><path fill="#fff" transform="matrix(0 -1 -1 0 17 10)" d="M0 0h10v17H0z"/></clipPath></defs></svg>