<svg width="24" height="15" fill="none" xmlns="http://www.w3.org/2000/svg"><g clip-path="url(#clip0_2145_8357)"><path d="M2.902 5.375l8.4 8.425c.1.1.208.17.325.212.116.042.241.063.375.063a1.1 1.1 0 00.375-.063.873.873 0 00.325-.212l8.425-8.425c.233-.233.35-.525.35-.875s-.125-.65-.375-.9a1.2 1.2 0 00-.875-.375 1.2 1.2 0 00-.875.375l-7.35 7.35-7.35-7.35a1.171 1.171 0 00-.862-.35c-.342 0-.638.125-.888.375a1.2 1.2 0 00-.375.875c0 .333.125.625.375.875z" fill="#101010"/></g><defs><clipPath id="clip0_2145_8357"><path fill="#fff" transform="matrix(0 -1 -1 0 24 14.5)" d="M0 0h14v24H0z"/></clipPath></defs></svg>