<svg width="41" height="24" fill="none" xmlns="http://www.w3.org/2000/svg"><g clip-path="url(#clip0_8016_3272)"><path d="M36.047 15.643L21.697 1.2a1.488 1.488 0 00-.555-.363A1.871 1.871 0 0020.5.729c-.228 0-.441.036-.64.108-.2.07-.385.192-.556.363L4.912 15.643c-.398.4-.598.9-.598 1.5s.214 1.114.641 1.543c.427.428.925.642 1.495.642.57 0 1.068-.214 1.495-.642L20.5 6.086l12.556 12.6a2 2 0 001.473.6c.584 0 1.09-.215 1.517-.643.427-.429.64-.929.64-1.5 0-.572-.213-1.072-.64-1.5z" fill="#fff"/></g><defs><clipPath id="clip0_8016_3272"><path fill="#fff" transform="matrix(0 1 1 0 0 0)" d="M0 0h24v41H0z"/></clipPath></defs></svg>