<svg width="24" height="15" fill="none" xmlns="http://www.w3.org/2000/svg"><g clip-path="url(#clip0_2124_2542)"><path d="M21.102 9.625l-8.4-8.425a.871.871 0 00-.325-.212 1.098 1.098 0 00-.375-.063 1.1 1.1 0 00-.375.063.872.872 0 00-.325.212L2.877 9.625c-.233.233-.35.525-.35.875s.125.65.375.9.542.375.875.375a1.2 1.2 0 00.875-.375l7.35-7.35 7.35 7.35c.234.233.521.35.862.35.342 0 .638-.125.888-.375a1.2 1.2 0 00.375-.875 1.2 1.2 0 00-.375-.875z" fill="#fff"/></g><defs><clipPath id="clip0_2124_2542"><path fill="#fff" transform="matrix(0 1 1 0 0 .5)" d="M0 0h14v24H0z"/></clipPath></defs></svg>