<svg width="26" height="25" fill="none" xmlns="http://www.w3.org/2000/svg"><path d="M9.875 2.5a.625.625 0 01.625.625v2.5a.625.625 0 11-1.25 0v-2.5a.625.625 0 01.625-.625zM5.013 4.513a.625.625 0 01.885 0L7.665 6.28a.625.625 0 11-.884.884L5.014 5.397a.625.625 0 010-.883l-.002-.002zm9.725 0a.625.625 0 010 .885l-1.77 1.767a.625.625 0 11-.884-.884l1.767-1.767a.625.625 0 01.884 0l.003-.002zM3 9.375a.625.625 0 01.625-.625h2.5a.625.625 0 010 1.25h-2.5A.625.625 0 013 9.375zm8.3-.25a1.25 1.25 0 00-2.05.959V21.46c0 1.155 1.431 1.692 2.191.824l2.533-2.895a1.874 1.874 0 011.411-.639h4.014c1.168 0 1.698-1.462.8-2.21L11.3 9.124v.001zm-.8 12.337V10.084l8.899 7.416h-4.014a3.124 3.124 0 00-2.352 1.067L10.5 21.462z" fill="#fff"/></svg>