<svg width="72" height="71" fill="none" xmlns="http://www.w3.org/2000/svg"><path d="M24.407 1.262c-.86.208-2.122.943-2.732 1.609-.305.332-.763 1.026-.998 1.539l-.444.929-.042 3.425-.055 3.44h-.749c-.624 0-.818.055-1.096.346l-.346.333v18.609l.346.333c.278.291.472.347 1.096.347h.763l.041 4.548.042 4.549.513 1.054c.624 1.262 1.442 2.052 2.718 2.648.86.402 1.068.444 2.704.486l1.761.055v.777c0 1.178.25 1.816 1.04 2.593.652.652 1.415 1.04 2.066 1.04.195 0 .222.208.209 1.622v1.637l-.916.582-.915.596h-7.46l-.333.347c-.292.277-.347.471-.347 1.11v.762H6.852v2.219h14.42v4.437H6.853v2.22h14.42v.762c0 .638.056.832.348 1.11.319.332.402.346 2.218.346h1.872v.763c0 .638.056.832.347 1.109l.333.347h7.516l.333-.347c.346-.333.346-.36.346-2.981s0-2.65-.346-2.982c-.278-.291-.472-.347-1.11-.347h-.762v-.776c0-1.207.25-1.844 1.04-2.621 1.4-1.415 3.175-1.415 4.576 0 .79.776 1.04 1.414 1.04 2.62v.777h-.763c-.638 0-.832.056-1.11.347-.346.333-.346.36-.346 2.981s0 2.65.347 2.982l.333.347H45l.333-.347c.29-.277.346-.471.346-1.11v-.762h1.872c1.817 0 1.9-.014 2.219-.347.291-.277.347-.471.347-1.11v-.762h14.422v-2.219H50.117v-4.438h14.422v-2.218H50.117v-.763c0-.637-.056-.832-.347-1.109l-.333-.347h-7.405l-.943-.596-.943-.582-.014-1.637c0-1.414.028-1.622.222-1.622.652 0 1.415-.388 2.066-1.04.79-.777 1.04-1.415 1.04-2.593v-.777l1.775-.055c1.623-.042 1.83-.084 2.69-.486 1.277-.596 2.095-1.386 2.719-2.648l.513-1.054.041-4.549.042-4.548h.763c.624 0 .818-.056 1.095-.347l.347-.333V12.883l-.347-.333c-.277-.291-.471-.347-1.095-.347h-.75l-.055-3.439-.041-3.439-.513-1.054c-.624-1.262-1.429-2.038-2.718-2.649l-.93-.443-11.024-.028c-6.365-.014-11.246.042-11.565.11zm22.298 2.233c.763.221 1.914 1.372 2.136 2.135.11.375.166 1.623.166 3.578v2.995H46.79V9.222c0-2.996 0-2.996-.347-3.328l-.333-.347H25.281l-.333.347c-.347.332-.347.332-.347 3.328v2.981h-2.219V9.208c0-1.955.056-3.204.167-3.578.208-.707 1.373-1.9 2.052-2.122.721-.221 21.328-.235 22.104-.013zm-2.135 6.614v2.344l-.416.166c-.583.236-1.442 1.248-1.637 1.914-.235.763-.235 14.546 0 15.31.195.665 1.054 1.677 1.637 1.913l.416.166v4.688H26.82v-4.688l.416-.166c.582-.236 1.442-1.248 1.636-1.914.236-.762.236-14.546 0-15.31-.194-.665-1.054-1.677-1.636-1.913l-.416-.166V7.766h17.75v2.343zm-18.097 4.66l.347.332v14.173l-.347.332c-.333.347-.333.347-3.328.347h-2.981V14.422h2.981c2.995 0 2.995 0 3.328.347zm24.753 7.418v7.766h-2.981c-2.996 0-2.996 0-3.328-.347l-.347-.332V15.1l.346-.332c.333-.347.333-.347 3.329-.347h2.981v7.765zM24.601 35.154c0 2.996 0 2.996.347 3.328l.333.347h20.828l.333-.347c.347-.332.347-.332.347-3.328v-2.981h2.219v4.105c0 2.828-.056 4.298-.167 4.687-.222.762-1.373 1.913-2.136 2.135-.818.236-21.203.236-22.02 0-.763-.222-1.914-1.373-2.136-2.135-.111-.389-.167-1.858-.167-4.687v-4.105h2.22v2.981zm16.64 11.094c0 .638-.055.832-.346 1.11l-.333.346h-9.735l-.332-.347c-.292-.277-.347-.471-.347-1.109v-.763h11.094v.763zm-3.327 4.91v1.247l-.514-.097c-.29-.055-1.053-.097-1.705-.097-.652 0-1.415.042-1.692.097l-.527.097v-2.482h4.438v1.234zm-.75 3.355c2.247.402 4.452 2.094 5.464 4.202.721 1.525.832 2.26.832 5.865v3.093h-4.438v-2.22h.764c.651 0 .832-.055 1.137-.36.346-.347.346-.361.291-2.316-.042-1.858-.07-2.025-.485-2.898-.61-1.29-1.387-2.094-2.649-2.718-.998-.486-1.123-.514-2.385-.514-1.262 0-1.387.028-2.385.514-1.262.624-2.039 1.428-2.649 2.718-.416.873-.444 1.04-.485 2.898-.056 1.955-.056 1.969.29 2.316.306.305.486.36 1.138.36h.763v2.219h-4.438v-3.093c0-1.705.07-3.466.153-3.924.319-1.761 1.442-3.536 2.912-4.66 1.816-1.386 3.938-1.885 6.17-1.483zm-10.358 3.134c-.832 1.664-.985 2.413-1.054 5.283l-.07 2.524h-2.19v-8.875h3.855l-.541 1.068zm21.092 3.37v4.437h-2.191l-.07-2.524c-.069-2.856-.207-3.577-1.053-5.283l-.527-1.068h3.841v4.438z" fill="#4C4C4C"/><path d="M32.367 41.047v1.11h6.656v-2.22h-6.656v1.11z" fill="#4C4C4C"/></svg>