<svg width="72" height="71" fill="none" xmlns="http://www.w3.org/2000/svg"><path d="M31.604 1.456c-.305.291-.347.458-.347 1.234 0 .832-.027.915-.305.97-.18.043-.97.209-1.775.361-.804.167-1.595.333-1.775.375-.25.055-.346-.014-.527-.458-.319-.776-.582-1.026-1.11-1.026-.665 0-6.28 2.4-6.67 2.857-.36.402-.401.804-.11 1.303.11.194.194.444.208.569 0 .166-2.371 1.927-2.954 2.177-.055.028-.347-.166-.652-.444-.998-.901-1.081-.86-3.98 2.039-2.898 2.898-2.94 2.981-2.038 3.98.277.305.471.596.444.651-.25.583-2.01 2.954-2.177 2.954a1.797 1.797 0 01-.569-.208c-.5-.291-.901-.25-1.303.097-.416.375-2.857 5.99-2.857 6.56 0 .582.25.9.929 1.192.54.222.61.319.54.582-.04.167-.207.957-.36 1.761-.166.805-.319 1.595-.36 1.762-.056.29-.139.319-.97.319-.778 0-.944.041-1.235.346l-.347.333v7.516l.347.333c.291.305.457.346 1.234.346.832 0 .915.028.97.306.042.18.195.97.361 1.775.153.804.32 1.594.36 1.775.07.263 0 .346-.443.526-.776.32-1.026.583-1.026 1.11 0 .665 2.399 6.282 2.857 6.67.402.36.804.402 1.303.111.194-.111.444-.194.569-.208.166 0 1.927 2.371 2.177 2.954.027.055-.167.346-.444.651-.901.999-.86 1.082 2.038 3.98 2.899 2.898 2.982 2.94 3.98 2.039.306-.278.597-.472.652-.444.583.25 2.954 2.01 2.954 2.177a1.802 1.802 0 01-.208.569c-.291.499-.25.901.11 1.303.39.458 6.005 2.857 6.67 2.857.528 0 .791-.25 1.11-1.026.18-.444.278-.513.527-.458.18.042.97.208 1.775.36.805.167 1.595.334 1.775.375.278.055.305.139.305.97 0 .777.042.944.347 1.235l.333.347h7.516l.333-.347c.305-.291.346-.458.346-1.234 0-.832.028-.916.32-.97.166-.043.928-.195 1.705-.348.763-.152 1.553-.319 1.761-.36.333-.097.402-.042.596.43.32.79.583 1.026 1.124 1.026.665 0 6.254-2.4 6.67-2.857.346-.402.388-.804.097-1.303a1.797 1.797 0 01-.208-.569c0-.166 2.371-1.927 2.953-2.177.056-.028.347.166.652.444.999.901 1.082.86 3.98-2.039 2.898-2.898 2.94-2.981 2.039-3.98-.278-.305-.472-.596-.444-.651.25-.583 2.01-2.954 2.177-2.954.125.014.374.097.569.208.499.291.9.25 1.303-.097.458-.416 2.857-6.005 2.857-6.67 0-.541-.236-.804-1.026-1.123-.444-.18-.514-.264-.444-.527.041-.18.208-.971.36-1.775.167-.805.32-1.595.36-1.775.056-.278.14-.306.972-.306.776 0 .943-.041 1.234-.346l.346-.333v-7.516l-.346-.333c-.291-.305-.458-.346-1.234-.346-.832 0-.916-.028-.971-.32-.042-.166-.194-.956-.36-1.76a51.801 51.801 0 00-.361-1.762c-.07-.263 0-.36.54-.582.68-.291.93-.61.93-1.179 0-.568-2.455-6.212-2.857-6.573-.402-.347-.804-.388-1.303-.097a1.798 1.798 0 01-.569.208c-.166 0-1.928-2.371-2.177-2.954-.028-.055.166-.346.444-.651.901-.999.86-1.082-2.039-3.98-2.898-2.899-2.981-2.94-3.98-2.039-.305.278-.596.472-.651.444-.583-.25-2.954-2.01-2.954-2.177.014-.125.097-.375.208-.569.291-.499.25-.901-.097-1.303-.402-.458-6.019-2.857-6.684-2.857-.527 0-.79.25-1.11 1.026-.194.472-.263.527-.596.43-.208-.041-.998-.208-1.761-.36a73.22 73.22 0 01-1.706-.347c-.29-.056-.319-.139-.319-.97 0-.777-.041-.944-.346-1.235l-.333-.347h-7.516l-.333.347zm6.31 2.649c0 1.33.166 1.47 2.19 1.775.763.124 2.206.416 3.19.651 1.747.444 1.817.444 2.177.208.208-.138.472-.471.583-.748a6.22 6.22 0 01.235-.541c.042-.042 3.592 1.47 3.675 1.567.042.028-.041.277-.166.54-.472.971-.222 1.387 1.386 2.316.597.347 1.678 1.082 2.4 1.623 1.553 1.165 1.927 1.234 2.704.54l.499-.43 1.4 1.401 1.401 1.401-.43.5c-.693.776-.624 1.164.527 2.69.527.707 1.262 1.788 1.622 2.399.666 1.137 1.151 1.636 1.567 1.636.14 0 .472-.097.763-.222.278-.111.541-.194.555-.167.166.167 1.58 3.648 1.498 3.675-.527.18-1.11.597-1.29.902-.18.332-.18.457.041 1.248.278.998.874 3.869.999 4.881.139.998.527 1.331 1.595 1.331h.832v4.438h-.832c-1.068 0-1.456.333-1.595 1.331-.125 1.012-.721 3.883-.998 4.881-.222.79-.222.916-.042 1.248.18.305.763.721 1.29.902.083.027-1.332 3.508-1.498 3.674-.014.028-.277-.055-.555-.166-.291-.125-.624-.222-.763-.222-.416 0-.9.5-1.567 1.637-.36.61-1.095 1.691-1.622 2.399-1.15 1.525-1.22 1.913-.527 2.69l.43.499-1.4 1.4-1.401 1.401-.5-.43c-.776-.693-1.15-.61-2.69.527-.707.527-1.788 1.262-2.399 1.623-1.622.956-1.872 1.359-1.4 2.33.125.263.208.513.166.54-.166.18-3.66 1.595-3.688 1.512-.18-.527-.597-1.11-.902-1.29-.333-.18-.458-.18-1.248.042-.998.277-3.869.873-4.881.998-.999.139-1.331.527-1.331 1.595v.832h-4.438v-.832c0-1.068-.333-1.456-1.331-1.595-1.22-.166-2.177-.347-4.036-.79-1.76-.43-1.83-.43-2.19-.195-.209.14-.472.472-.583.75a5.83 5.83 0 01-.236.54c-.041.042-3.591-1.47-3.675-1.567-.041-.027.042-.277.167-.54.471-.971.222-1.373-1.4-2.33-.61-.36-1.692-1.096-2.4-1.623-1.525-1.15-1.913-1.22-2.69-.527l-.5.43-1.4-1.4-1.4-1.401.43-.5c.693-.776.624-1.164-.527-2.69-.527-.707-1.262-1.788-1.623-2.398-.957-1.623-1.359-1.873-2.33-1.401-.263.125-.513.208-.54.166-.097-.083-1.609-3.633-1.567-3.675a6.69 6.69 0 01.54-.235c.278-.111.61-.375.75-.583.235-.36.235-.43-.209-2.177a54.817 54.817 0 01-.651-3.19c-.306-2.024-.444-2.19-1.775-2.19h-.777V33.28h.832c1.068 0 1.456-.333 1.595-1.331.125-.985.707-3.855.998-4.881.222-.79.222-.915.042-1.248-.18-.305-.763-.721-1.29-.902-.083-.027 1.331-3.522 1.512-3.688.027-.042.277.041.54.166.971.472 1.373.222 2.33-1.4.36-.61 1.096-1.692 1.623-2.4 1.137-1.539 1.22-1.913.527-2.69l-.43-.499 1.4-1.4 1.4-1.401.5.43c.777.693 1.165.624 2.663-.5a32.62 32.62 0 012.19-1.483c1.165-.68 1.873-1.332 1.873-1.72 0-.152-.111-.499-.236-.776-.125-.264-.208-.513-.166-.541.166-.18 3.66-1.595 3.688-1.512.18.527.596 1.11.901 1.29.333.18.458.18 1.249-.042.998-.277 3.869-.873 4.88-.998 1-.139 1.332-.527 1.332-1.595v-.832h4.438v.777z" fill="#4C4C4C"/><path d="M34.586 10.165c-.68.222-1.845 1.414-2.053 2.121-.388 1.304-.11 2.344.874 3.315.707.72 1.414 1.04 2.288 1.04.873 0 1.58-.32 2.288-1.04 1.359-1.346 1.4-3.079.11-4.507-.9-.999-2.19-1.345-3.508-.93zm1.872 2.385c.221.208.346.499.346.762 0 .264-.125.555-.346.763-.68.694-1.872.208-1.872-.762 0-.57.54-1.11 1.109-1.11.263 0 .554.125.763.347zm-9.361-1.054C14.103 16.169 7.114 30.522 11.483 43.543c.943 2.773 1.65 4.022 2.315 4.022.32 0 13.91-5.187 14.367-5.492.596-.374.555-.79-.222-2.316-.79-1.553-1.123-2.815-1.123-4.257 0-3.786 2.523-7.253 6.184-8.445.874-.291 1.304-.68 1.304-1.193 0-.29-3.966-13.381-4.313-14.255-.332-.804-.901-.832-2.898-.111zm2.898 7.613c.957 3.106 1.748 5.713 1.775 5.796.042.098-.402.389-.97.666-5.242 2.51-7.544 8.723-5.312 14.27l.333.804-.29.138c-.167.07-2.733 1.054-5.686 2.191l-5.395 2.067-.333-.763a21.926 21.926 0 01-.749-2.163C9.985 30.522 15.92 18.36 27.166 13.812c.458-.18.902-.347.971-.347.083 0 .915 2.538 1.858 5.644zm11.787-8.015c-.124.07-.29.305-.388.513-.333.846-4.313 13.964-4.313 14.241 0 .5.389.888 1.151 1.124 2.344.776 4.355 2.468 5.353 4.534 1.36 2.801 1.318 5.395-.138 8.237-.777 1.526-.819 1.956-.222 2.33.416.264 14.033 5.492 14.31 5.492.5 0 .819-.361 1.387-1.567 3.87-8.252 2.718-18.513-2.926-25.918-.956-1.248-3.148-3.495-4.354-4.465-2.233-1.803-4.853-3.26-7.46-4.16-1.47-.514-2.011-.597-2.4-.361zm2.76 2.856c2.829 1.151 5.38 2.885 7.655 5.187 3.633 3.66 5.907 8.32 6.587 13.423.333 2.538.235 5.034-.291 7.724-.236 1.137-1.04 3.73-1.387 4.382l-.18.375-5.381-2.067c-2.954-1.137-5.52-2.121-5.686-2.19l-.29-.14.332-.804c2.233-5.546-.042-11.676-5.297-14.283-.569-.277-1.012-.568-.985-.651.028-.084.818-2.69 1.775-5.797.943-3.106 1.775-5.658 1.83-5.658.07 0 .653.222 1.318.5z" fill="#4C4C4C"/><path d="M34.045 29.066c-3.509.943-5.686 4.59-4.798 8.029.929 3.55 4.562 5.755 8.043 4.854 3.55-.93 5.755-4.563 4.853-8.016-.929-3.591-4.618-5.81-8.098-4.867zm3.744 2.565c.929.5 1.359.943 1.9 1.983.305.597.36.888.36 1.886.014 1.082-.027 1.248-.457 2.053-.527.97-.971 1.386-2.011 1.941-.596.305-.888.36-1.886.36-.998 0-1.29-.055-1.886-.36-1.04-.555-1.484-.97-2.01-1.941-.43-.805-.472-.971-.458-2.053 0-1.386.332-2.218 1.234-3.12 1.387-1.387 3.453-1.678 5.214-.749zM29.33 42.808c-.194.166-1.207 2.62-2.995 7.28-1.484 3.87-2.705 7.128-2.705 7.253 0 .5.36.818 1.567 1.387 6.449 3.023 14.616 3.023 20.981.013 1.22-.582 1.581-.9 1.581-1.4 0-.125-1.22-3.384-2.704-7.253-1.789-4.66-2.801-7.114-2.995-7.28-.43-.347-.735-.291-1.845.305-1.553.86-2.8 1.179-4.52 1.179-1.72 0-2.968-.32-4.52-1.179-1.11-.596-1.415-.652-1.845-.305zm5.034 3.661c1.705.222 3.48.014 5.103-.569.638-.235 1.206-.43 1.276-.457.069-.014 1.109 2.524 2.301 5.63l2.191 5.658-.374.18c-1.387.707-4.451 1.498-6.878 1.761-3.495.375-8.126-.291-11.066-1.595l-.763-.332 2.066-5.395c1.138-2.953 2.122-5.519 2.191-5.672l.14-.304 1.233.47a11.64 11.64 0 002.58.625zm-16.419 2.524c-.68.222-1.845 1.414-2.053 2.122-.388 1.303-.11 2.343.874 3.314 1.4 1.414 3.176 1.414 4.576 0 1.36-1.345 1.4-3.079.111-4.507-.901-.998-2.19-1.345-3.508-.929zm1.872 2.385c.693.68.208 1.872-.763 1.872a1.08 1.08 0 01-.762-.346 1.08 1.08 0 01-.347-.763c0-.264.125-.555.346-.763.209-.222.5-.347.763-.347.264 0 .555.125.763.347zm31.409-2.385c-.68.222-1.844 1.414-2.052 2.122-.389 1.303-.111 2.343.873 3.314 1.401 1.414 3.176 1.414 4.577 0 1.358-1.345 1.4-3.079.11-4.507-.9-.998-2.19-1.345-3.508-.929zm1.872 2.385c.694.68.208 1.872-.762 1.872-.57 0-1.11-.54-1.11-1.11 0-.568.54-1.109 1.11-1.109.263 0 .554.125.762.347z" fill="#4C4C4C"/></svg>