<svg width="72" height="71" fill="none" xmlns="http://www.w3.org/2000/svg"><path d="M49.354 14.768c-.194.18-.347.472-.347.638 0 .153.347 1.567.777 3.134.43 1.553.749 2.857.721 2.87-.097.084-19.72 3.967-19.76 3.912-.07-.07-1.152-2.899-1.152-3.01 0-.055.416-.166.916-.25a8.093 8.093 0 002.967-1.136 6.49 6.49 0 013.411-.957h1.027v-2.261l-1.415.07c-1.65.083-2.746.402-4.132 1.22-2.358 1.387-4.715 1.303-7.073-.277-.568-.375-1.081-.694-1.137-.694-.097 0-1.22 1.581-1.22 1.72 0 .277 2.898 1.913 3.689 2.08.43.097.471.18 1.275 2.316l.832 2.218-.568.527c-1.636 1.498-5.866 5.187-6.005 5.242-.083.028-.499-.138-.9-.388-.972-.569-2.483-1.165-3.676-1.47-1.331-.319-4.631-.333-5.935 0-2.538.638-4.548 1.775-6.407 3.62-1.844 1.858-2.981 3.882-3.619 6.406-.333 1.317-.333 4.618 0 5.935.624 2.482 1.775 4.535 3.564 6.338 2.413 2.454 5.297 3.771 8.68 3.965 6.713.389 12.717-4.382 13.826-11.01l.18-1.082 1.207-.041c.957-.028 1.207 0 1.207.152 0 .458 1.012 2.177 1.608 2.718.583.541 2.122 1.4 2.524 1.4.125 0 .166.334.166 1.18v1.178h-4.438v2.219h2.982c2.996 0 2.996 0 3.329-.347.332-.319.346-.402.346-2.288 0-1.553.042-1.941.194-1.941.097 0 .624-.222 1.151-.486 1.193-.596 1.997-1.428 2.58-2.676.402-.846.443-1.054.443-2.246 0-1.193-.041-1.415-.43-2.22-.526-1.108-1.109-1.788-2.01-2.384l-.694-.444.666-.652c2.246-2.232 12.883-12.023 12.966-11.94.055.056.152.306.194.555.083.444.083.444-.485.444-.43 0-.666.083-.916.347-.43.416-.43.513.014 2.593.36 1.65.36 1.705.111 1.872-.152.11-.735.5-1.317.873-3.744 2.441-6.046 7.156-5.769 11.788.208 3.314 1.54 6.198 3.966 8.597 1.803 1.79 3.855 2.94 6.337 3.564 1.318.333 4.618.333 5.935 0 2.566-.638 4.494-1.733 6.393-3.633 1.9-1.9 2.996-3.827 3.633-6.393.333-1.317.333-4.618 0-5.935-.998-3.966-3.591-7.225-7.169-8.958-1.4-.666-2.219-.93-4.007-1.234l-1.332-.222-.29-1.373c-.375-1.706-.542-1.886-1.804-1.886h-.873l-.167-.596c-.083-.32-.68-2.51-1.317-4.854-.638-2.343-1.165-4.326-1.165-4.396 0-.083 1.304-.138 3.328-.138h3.342l.333.346c.458.444.458 1.082 0 1.526-.319.332-.402.346-2.219.346h-1.872v2.22h1.886c2.358 0 2.829-.126 3.73-1.04.985-.972 1.262-2.012.874-3.315-.222-.763-1.373-1.914-2.136-2.136-.402-.11-1.913-.166-4.895-.166h-4.326l-.333.346zm.763 9.014c0 .028-3.315 3.162-7.364 6.948-5.31 4.95-7.405 6.836-7.474 6.698-.194-.347-3.744-9.874-3.703-9.915.028-.028 4.188-.888 9.264-1.9 5.061-1.026 9.221-1.872 9.249-1.886.014 0 .028.014.028.055zm-20.135 5.894l.277.776-6.92 5.852-6.92 5.866-1.067-.041-1.054-.042 7.599-6.698c4.174-3.689 7.64-6.656 7.696-6.587.056.056.236.458.389.874zm26.153 5.56c.749 3.509 1.4 6.504 1.428 6.657.07.25-.014.263-1.026.263h-1.095l-1.373-6.42c-.749-3.523-1.4-6.518-1.428-6.656-.056-.208.055-.236 1.026-.236h1.095l1.373 6.392zm-39.771-2.912c1.11.195 2.787.75 3.425 1.138l.541.332-.874.763-.86.777-.568-.25c-3.259-1.387-7.1-.624-9.652 1.941-3.466 3.467-3.494 9-.069 12.412 3.273 3.258 7.988 3.605 11.676.86 1.567-1.166 2.87-3.204 3.245-5.062l.18-.86h2.275l-.18.93a11.228 11.228 0 01-4.896 7.266c-1.858 1.22-3.577 1.719-5.99 1.719-2.413 0-4.133-.5-5.99-1.72-3.024-1.983-4.827-5.075-5.062-8.694-.403-6.227 4.617-11.593 10.927-11.69.568 0 1.414.055 1.872.138zm44.153.541a11.252 11.252 0 015.56 4.41c1.221 1.872 1.72 3.578 1.72 5.99 0 3.135-1.04 5.658-3.203 7.822-2.163 2.163-4.687 3.203-7.821 3.203-2.413 0-4.133-.5-5.99-1.72-2.427-1.58-3.994-3.785-4.799-6.739-.319-1.179-.305-3.98.028-5.27.68-2.634 2.385-5.033 4.632-6.517.707-.472.748-.444.984.846l.167.901-1.082 1.068c-.596.596-1.29 1.428-1.54 1.858-2.066 3.509-1.538 7.904 1.29 10.72 1.706 1.691 3.523 2.523 5.825 2.662 2.523.139 4.867-.749 6.642-2.524 1.706-1.692 2.538-3.508 2.676-5.824.25-4.243-2.399-7.821-6.74-9.11l-.623-.181-.236-1.096-.236-1.095.805.083c.443.056 1.317.278 1.941.513zm-28.303 2.76c.846 2.274.97 2.718.79 2.815-1.095.61-2.107 1.83-2.537 3.037l-.25.693-1.178-.041-1.18-.042-.096-.832c-.139-1.026-.541-2.4-1.082-3.592l-.402-.915 1.415-1.206c.776-.666 1.844-1.567 2.37-2.025.528-.444 1-.763 1.055-.693.055.055.54 1.317 1.095 2.8zm-15.808 1.22c.305.125.11.319-2.635 2.732-1.637 1.442-3.106 2.76-3.273 2.954-.43.443-.416 1.067.028 1.497l.333.347h10.317l-.097.444c-.167.873-.874 2.135-1.65 2.967-.86.943-1.97 1.595-3.218 1.928-3.48.901-7.113-1.304-8.043-4.854-.887-3.439 1.262-7.044 4.799-8.043.79-.221 2.8-.208 3.439.028zm43.446.54c1.553.791 2.898 2.497 3.37 4.286 1.233 4.756-3.287 9.277-8.044 8.043-3.55-.93-5.755-4.563-4.853-8.015.11-.444.36-1.11.554-1.498.416-.804 1.318-1.858 1.456-1.692.056.056.347 1.262.638 2.676.416 2.011.597 2.635.846 2.871.291.305.389.319 2.954.319 2.62 0 2.649 0 2.981-.347.195-.18.347-.457.347-.61 0-.152-.277-1.595-.624-3.203-.347-1.609-.624-2.982-.624-3.051 0-.222.236-.166.998.222zm-34.987 1.707c.346.887.707 2.26.707 2.745 0 .305-.056.32-1.096.32h-1.095l-.097-.652a6.4 6.4 0 00-.32-1.207l-.221-.54.832-.736c.444-.416.846-.749.887-.749.042 0 .222.361.402.819zm11.856 1.012c.763.222 1.914 1.373 2.136 2.135.346 1.165.124 2.22-.638 3.107-.403.485-1.082.97-1.346.97-.041 0-.069-.943-.069-2.08v-2.08h-2.219v2.08c0 1.137-.027 2.08-.069 2.08-.263 0-.943-.485-1.345-.97-1.165-1.345-1.068-3.079.236-4.368.97-.985 2.01-1.248 3.314-.874zm-15.67 1.442c.194.5.097.61-.54.61h-.625l.444-.416c.527-.471.61-.499.721-.194z" fill="#4C4C4C"/></svg>