<svg width="65" height="35" fill="none" xmlns="http://www.w3.org/2000/svg"><path d="M15.588 15.95c1.597 0 2.89-1.268 2.89-2.833 0-1.565-1.294-2.833-2.89-2.833s-2.89 1.268-2.89 2.833c0 1.565 1.293 2.833 2.89 2.833zM17.9 7.337c1.596 0 2.89-1.268 2.89-2.833 0-1.565-1.294-2.833-2.89-2.833-1.597 0-2.891 1.268-2.891 2.833 0 1.565 1.294 2.833 2.89 2.833z" stroke="#101010" stroke-width=".731" stroke-miterlimit="10"/><path d="M18.012 4.816a.168.168 0 00.119-.061c.284-.375-.077-.486-.077-.486l-5.586.427a.173.173 0 01-.145-.052.157.157 0 01-.037-.143 4.24 4.24 0 01.506-1.266.326.326 0 01.123-.122.345.345 0 01.34 0 .34.34 0 01.122.122l-.002.438c-.002.03.006.06.022.086a.358.358 0 00.124.111.17.17 0 00.211-.051.152.152 0 00.027-.07c.044-.349.055-1.13-.706-1.16-1.028-.05-1.296 1.809-1.36 2.493a.218.218 0 00.065.178.24.24 0 00.182.071h.838a.172.172 0 01.122.053.158.158 0 01.041.121l-.391 4.03a.152.152 0 01-.05.1.166.166 0 01-.105.043l-1.173.066a.173.173 0 01-.133-.054.156.156 0 01-.038-.132c.04-.194.065-.39.073-.587 0-.199-.183-.272-.277-.328a.097.097 0 00-.126.018.09.09 0 00-.02.04l-.465 2.123a.149.149 0 00.04.14.328.328 0 00.206.093.172.172 0 00.105-.025.16.16 0 00.067-.081l.19-.523a.156.156 0 01.054-.072.169.169 0 01.085-.034l1.396-.132a.171.171 0 01.138.05l2.987 3.135a.165.165 0 00.122.052h.113c.035 0 .069-.01.097-.03a.157.157 0 00.06-.078l1.417-4.016a.151.151 0 00-.03-.151L14.006 5.39a.15.15 0 01-.038-.12v-.036a.154.154 0 01.05-.095.167.167 0 01.101-.043l3.894-.28zM16.54 10.01l-.91 2.388a.159.159 0 01-.049.065.169.169 0 01-.158.03.167.167 0 01-.07-.043l-2.017-2.09a.156.156 0 01-.034-.159.158.158 0 01.05-.069.17.17 0 01.08-.034l2.915-.45a.173.173 0 01.126.04.159.159 0 01.056.115v.152a.137.137 0 01.01.055zm-.284-.956l-2.978.45a.173.173 0 01-.135-.046.157.157 0 01-.047-.128l.364-3.31a.156.156 0 01.039-.074.173.173 0 01.238-.009l2.617 2.858c.02.021.032.047.037.075a.152.152 0 01-.007.082.158.158 0 01-.05.068.169.169 0 01-.078.034z" fill="#101010" stroke="#101010" stroke-width=".244" stroke-miterlimit="10"/><path d="M49.034 29.498l1.255-3.19-2.847-1.989h3.642l1.163-3.16.95 3.217h3.488l-2.938 1.874.889 3.248-2.573-1.844" fill="#F57520"/><path d="M34.02 34.83h3.654L47.84 1.163h-3.654L34.02 34.831z" fill="#101010"/><path fill-rule="evenodd" clip-rule="evenodd" d="M39.402 34.83l1.13-3.366h13.047c.335 0 .654 0 .96-.007 1.712-.088 3.276-.982 4.484-2.158a6.384 6.384 0 001.953-4.568c0-1.72-.71-3.37-1.976-4.591-.645-.623-1.4-.917-2.225-1.057a16.841 16.841 0 00-2.289-.132l-.228-.002h-10.27l.996-3.049h5.05c.9 0 1.434.01 1.898.017.768.013 1.346.023 3.085-.017.914-.02 1.516-.048 2.05-.186a6.413 6.413 0 002.317-1.44 5.977 5.977 0 001.83-4.28c0-1.612-.645-3.367-1.83-4.512-1.185-1.144-2.787-1.32-4.47-1.334h-6.276l.731-2.985h4.518c.362 0 .651-.004.902-.007.858-.01 1.269-.014 2.554.134.178.02.34.051.492.093 1.513.253 2.906.783 4.038 1.876 1.834 1.77 2.834 4.24 2.845 6.734-.011 2.478-1.032 4.854-2.846 6.622a5.32 5.32 0 01-.728.595c.17.125.337.265.499.42 1.958 1.89 3.062 4.44 3.075 7.101-.012 2.644-1.103 5.18-3.038 7.066a10.405 10.405 0 01-4.436 2.54c-.936.313-2.004.494-3.224.494H39.402z" fill="#101010"/><path d="M.664 1.162h3.588l8.572 28.396-1.33 5.272L.665 1.162zM12.89 34.83h3.522l7.442-27.57 8.505 27.57 1.728-5.4-8.904-28.268h-3.322l-8.97 33.669z" fill="#101010"/></svg>