<svg width="87" height="48" fill="none" xmlns="http://www.w3.org/2000/svg"><path d="M20.864 21.33c2.137 0 3.869-1.775 3.869-3.966 0-2.19-1.732-3.967-3.87-3.967-2.136 0-3.868 1.776-3.868 3.967 0 2.19 1.732 3.966 3.869 3.966zm3.095-12.058c2.136 0 3.869-1.776 3.869-3.966 0-2.191-1.733-3.967-3.87-3.967-2.136 0-3.869 1.776-3.869 3.967 0 2.19 1.733 3.966 3.87 3.966z" stroke="#fff" stroke-width=".731" stroke-miterlimit="10"/><path d="M24.11 5.742a.217.217 0 00.158-.085c.38-.524-.102-.68-.102-.68l-7.478.597a.222.222 0 01-.243-.273c.131-.623.36-1.22.677-1.773a.447.447 0 01.783 0l-.003.615a.207.207 0 00.03.12.488.488 0 00.166.155.22.22 0 00.319-.17c.058-.488.073-1.58-.946-1.624-1.375-.068-1.733 2.533-1.819 3.491a.319.319 0 00.33.349h1.12a.221.221 0 01.22.243l-.524 5.642a.217.217 0 01-.207.2l-1.57.093a.221.221 0 01-.23-.261 5.17 5.17 0 00.098-.822c0-.278-.244-.38-.37-.458a.127.127 0 00-.196.08l-.621 2.972a.217.217 0 00.053.198.432.432 0 00.276.129.222.222 0 00.23-.149l.255-.731a.218.218 0 01.185-.149l1.868-.185a.22.22 0 01.185.07l3.998 4.389a.222.222 0 00.164.073h.151a.219.219 0 00.21-.151l1.896-5.622a.222.222 0 00-.039-.212l-4.388-5.266a.211.211 0 01-.051-.169v-.05a.22.22 0 01.202-.193l5.213-.393zm-1.973 7.273l-1.219 3.342a.223.223 0 01-.276.133.221.221 0 01-.094-.06l-2.7-2.925a.222.222 0 01.13-.369l3.9-.628a.22.22 0 01.224.128.21.21 0 01.02.088v.213c.01.024.016.05.015.078zm-.38-1.339l-3.986.63a.221.221 0 01-.244-.245l.488-4.632a.222.222 0 01.37-.117l3.504 4a.223.223 0 01-.027.316.221.221 0 01-.105.048z" fill="#fff" stroke="#fff" stroke-width=".244" stroke-miterlimit="10"/><path d="M65.63 40.297l1.68-4.466-3.81-2.785h4.873l1.558-4.424 1.27 4.505h4.669l-3.933 2.623 1.19 4.547-3.442-2.582" fill="#F57520"/><path d="M45.535 47.763h4.891L64.033.628h-4.891L45.535 47.763z" fill="#fff"/><path fill-rule="evenodd" clip-rule="evenodd" d="M52.738 47.763l1.512-4.714h17.463c.449.001.875.002 1.286-.009 2.291-.123 4.384-1.375 6-3.022a9.13 9.13 0 00-.03-12.823c-.864-.872-1.875-1.283-2.978-1.479a21.608 21.608 0 00-2.126-.174 68.498 68.498 0 00-.937-.01l-.307-.003H58.875l1.334-4.269h6.759c1.206 0 1.92.013 2.54.024 1.028.018 1.802.032 4.13-.024 1.224-.029 2.03-.068 2.745-.26a8.536 8.536 0 003.1-2.017 8.558 8.558 0 002.448-5.992c0-2.257-.862-4.714-2.448-6.316-1.587-1.602-3.73-1.85-5.982-1.868h-8.4l.978-4.18h6.047c.483 0 .871-.004 1.207-.008 1.149-.014 1.698-.02 3.418.186.238.029.456.073.659.13 2.025.356 3.89 1.098 5.404 2.627 2.454 2.48 3.793 5.938 3.809 9.429a13.322 13.322 0 01-3.81 9.27 7.2 7.2 0 01-.975.833c.229.175.452.37.669.59a14.216 14.216 0 014.115 9.94 14.214 14.214 0 01-4.066 9.891 13.792 13.792 0 01-5.938 3.556c-1.252.439-2.682.692-4.314.692H52.738z" fill="#fff"/><path d="M.89.627h4.802l11.472 39.754-1.779 7.382L.89.627zm16.364 47.136h4.713l9.961-38.598 11.384 38.598 2.312-7.56L33.707.627H29.26L17.254 47.763z" fill="#fff"/></svg>