<svg xmlns="http://www.w3.org/2000/svg" width="11" height="px" viewBox="0 0 11 11"><path d="M5.5.457a2.521 2.521 0 000 5.043 2.52 2.52 0 000-5.043zm0 1.594a.929.929 0 110 1.855.929.929 0 110-1.855zm2.105 3.46a.923.923 0 00-.515.13 3.15 3.15 0 01-3.18 0 .916.916 0 00-1.363 1.007.898.898 0 00.418.563 4.79 4.79 0 001.07.48L2.754 9.016a.901.901 0 00-.23.664.89.89 0 00.304.629.918.918 0 00.61.234c.253 0 .5-.105.68-.3L5.5 8.808l1.379 1.425a.909.909 0 00.684.305.917.917 0 00.68-1.531L6.964 7.69a4.72 4.72 0 001.07-.48.898.898 0 00.418-.563.923.923 0 00-.105-.695.906.906 0 00-.563-.414.716.716 0 00-.18-.027zm0 0"/></svg>