<svg width="40" height="40" fill="none" xmlns="http://www.w3.org/2000/svg"><g clip-path="url(#clip0_1948_124)" fill="#4C4C4C"><path d="M18.594.047c-.149.016-.61.07-1.016.117-2.43.274-5.219 1.172-7.351 2.375a19.316 19.316 0 00-4.368 3.32A19.936 19.936 0 00.117 17.58c-.156 1.265-.156 3.655 0 4.921.43 3.469 1.89 7.047 4 9.79.555.71 1.125.905 1.79.609.484-.22.695-.57.695-1.157 0-.414-.032-.515-.258-.82-2.04-2.719-3.188-5.39-3.657-8.5-.164-1.086-.187-3.367-.039-4.453C3.75 9.727 10.172 3.477 18.368 2.656c.491-.054.976-.078 1.07-.062.132.016-.11.266-1.25 1.273-.891.79-1.454 1.344-1.516 1.5-.469 1.102.617 2.188 1.71 1.711.36-.156 5.415-4.672 5.571-4.976.164-.32.164-.907 0-1.22-.203-.398-.539-.577-1.281-.694-.664-.11-3.54-.204-4.078-.141zm15.5 7.133c-.485.218-.696.57-.696 1.156 0 .414.032.516.258.82 3.219 4.281 4.422 9.016 3.532 13.953-.868 4.813-3.758 9.07-7.93 11.696-2.445 1.539-5.438 2.453-8.461 2.586l-.992.047 1.422-1.399c.78-.766 1.46-1.469 1.5-1.562.046-.094.085-.36.085-.586 0-.492-.187-.852-.562-1.078-.344-.211-1.031-.211-1.352-.008-.304.195-4.937 4.695-5.125 4.976-.218.328-.203 1.024.032 1.36.265.406.593.547 1.484.672 6.273.843 12.5-1.227 16.898-5.626 2.938-2.945 4.829-6.617 5.586-10.882.235-1.313.297-4.18.118-5.649a20.334 20.334 0 00-3.938-9.75c-.633-.843-1.156-1.047-1.86-.726z"/><path d="M12.695 11.883c-1.312.102-2.343.57-3.242 1.477-.969.968-1.367 2.007-1.312 3.492.015.656.054.828.187 1.015.57.774 1.602.774 2.172 0 .125-.164.164-.382.203-1.054.04-.625.094-.914.219-1.156.898-1.75 4.172-1.602 5.047.226.39.82.312 2.031-.18 2.742-.297.43-1.148 1.203-2.43 2.203-2.789 2.172-3.96 3.375-4.882 5-.305.524-.352.68-.352 1.055 0 .516.195.867.625 1.117.266.157.398.164 4.688.188 3.07.015 4.539 0 4.82-.063a1.257 1.257 0 00.75-2.015c-.367-.493-.313-.485-3.906-.485h-3.258l.539-.555c.305-.304 1.32-1.171 2.265-1.93 3.477-2.773 4.11-3.702 4.125-6.07.008-1.578-.39-2.593-1.43-3.64-1.132-1.149-2.765-1.695-4.648-1.547z"/><path d="M28.227 11.875a1.405 1.405 0 00-.438.203c-.281.211-8.648 10.406-8.742 10.649-.117.304-.031 1 .148 1.242.086.117.274.281.422.367.258.148.43.156 3.961.18l3.688.023v1.297c0 1.492.093 1.828.601 2.14.375.235 1 .235 1.375 0 .508-.312.602-.648.602-2.132v-1.29l.586-.046c.672-.047 1.008-.203 1.265-.602.235-.343.25-1.023.024-1.39-.258-.422-.578-.563-1.266-.563h-.61v-4.547c0-4.437 0-4.554-.163-4.875-.25-.523-.86-.797-1.453-.656zm-.985 10.055c-.015.015-.976.015-2.133.008L23 21.913l2.117-2.562 2.11-2.57.023 2.562c.008 1.406.008 2.57-.008 2.586z"/></g><defs><clipPath id="clip0_1948_124"><path fill="#fff" d="M0 0h40v40H0z"/></clipPath></defs></svg>