<svg width="40" height="40" fill="none" xmlns="http://www.w3.org/2000/svg"><path d="M7.164 3.695c-.36.22-.172-.07-3.961 6.032C.054 14.789.047 14.797.015 15.273c-.015.383.008.524.157.75.101.157 4.422 4.79 9.609 10.29 6.734 7.14 9.508 10.023 9.68 10.085.32.11.758.11 1.078 0 .172-.062 2.945-2.945 9.68-10.086 5.187-5.5 9.507-10.132 9.609-10.289.148-.226.172-.367.156-.75-.031-.476-.039-.492-2.867-5.039-4.188-6.726-3.938-6.343-4.29-6.546l-.312-.172H7.461l-.297.18zm5.336 2.57a691.14 691.14 0 01-.766 3.891l-.765 3.79-3.61.023-3.61.015.376-.601c.21-.336 1.304-2.094 2.43-3.914l2.054-3.297h1.946c1.507 0 1.945.023 1.945.094zm12.218.04c.07.234 1.61 7.492 1.61 7.586 0 .07-1.586.093-6.29.093-3.46 0-6.288-.023-6.288-.062-.008-.031.336-1.79.758-3.906l.765-3.844h4.703c4.407 0 4.704.008 4.742.133zm9.094 3.75l2.414 3.89-3.515.024c-1.938.008-3.531 0-3.555-.024-.055-.047-1.648-7.437-1.656-7.64 0-.125.14-.133 1.945-.133h1.945l2.422 3.883zM13.64 22.89l2.453 6.132-.46-.468A4207.23 4207.23 0 014.695 16.93l-.195-.211 3.344.015 3.343.024 2.453 6.133zm12.266-6.04c-.414 1.11-5.867 14.555-5.898 14.555-.032 0-1.375-3.304-2.993-7.343l-2.937-7.344h5.937c5.625 0 5.938.008 5.891.133zm9.398.079c-.39.437-10.5 11.172-10.906 11.586l-.422.43.164-.43a2064.16 2064.16 0 014.735-11.735c.023-.031 1.523-.062 3.328-.062h3.289l-.188.21z" fill="#4C4C4C"/></svg>