<svg width="40" height="40" fill="none" xmlns="http://www.w3.org/2000/svg"><g clip-path="url(#clip0_1949_145)" fill="#4C4C4C"><path d="M17.734.117c-1.047.133-1.203.18-1.555.438-.406.289-.507.5-1.171 2.375a73.302 73.302 0 01-.57 1.562c-.016.008-.352.141-.75.305l-.727.297-.797-.367C9.562 3.508 9.68 3.555 9.18 3.563c-.579 0-.797.11-1.758.875-.946.758-2.227 2.039-2.985 2.984-.695.875-.836 1.133-.898 1.633-.047.43.117.875 1.031 2.789l.531 1.11-.304.726c-.164.406-.297.742-.305.758a82.2 82.2 0 01-1.562.57c-.852.297-1.68.617-1.844.695a1.775 1.775 0 00-.766.883c-.297.781-.414 3.961-.203 5.656.133 1.055.195 1.274.477 1.649.257.336.539.469 2.351 1.11.844.296 1.54.554 1.547.562.008.015.11.265.227.57.125.297.25.633.296.742.07.172-.015.399-.625 1.68-.382.812-.742 1.617-.796 1.789-.11.351-.063.875.125 1.242.57 1.094 3.25 3.797 4.648 4.68.297.187.93.258 1.29.14.171-.054.976-.414 1.788-.796 1.281-.61 1.508-.696 1.68-.625.11.046.445.171.742.296.305.118.555.22.57.227.008.008.266.703.563 1.547.64 1.812.773 2.094 1.11 2.351.374.282.57.336 1.6.477 1.665.219 4.907.102 5.712-.203a1.79 1.79 0 00.875-.766c.078-.164.398-.992.695-1.843.305-.852.563-1.555.57-1.563.016-.008.274-.11.57-.227.305-.125.633-.25.743-.296.172-.07.398.015 1.68.625.82.382 1.617.742 1.789.796.359.118.992.047 1.289-.14 1.398-.883 4.078-3.586 4.648-4.68.188-.367.235-.89.125-1.242-.055-.172-.414-.977-.797-1.79-.61-1.28-.695-1.507-.625-1.679.047-.11.172-.445.297-.742.117-.305.219-.555.227-.57.008-.008.703-.266 1.546-.563 1.813-.64 2.094-.773 2.352-1.11.281-.374.344-.593.477-1.648.148-1.218.148-3.273 0-4.5-.227-1.812-.242-1.828-3.125-2.851l-1.258-.446-.227-.593a33.732 33.732 0 01-.297-.758c-.054-.125.094-.508.633-1.649.383-.82.742-1.617.797-1.789.11-.351.063-.875-.125-1.242-.414-.804-2.375-2.914-3.703-3.976-.961-.766-1.18-.875-1.758-.875-.5-.008-.383-.055-2.984 1.164l-.797.367-.727-.297c-.398-.164-.734-.297-.75-.305-.008-.007-.265-.71-.57-1.562-.297-.852-.617-1.68-.695-1.844a1.79 1.79 0 00-.875-.765c-.774-.29-4.094-.415-5.688-.204zm3.242 3.399h.493l.57 1.617c.726 2.055.797 2.148 2.062 2.602a19.45 19.45 0 011.641.671c.688.329.844.375 1.29.375.476 0 .593-.039 2.015-.718l1.515-.72.54.478c.296.265.773.734 1.046 1.046l.508.57-.719 1.508c-.68 1.43-.718 1.547-.718 2.024 0 .445.046.601.39 1.328.219.453.516 1.172.664 1.602.219.64.328.843.617 1.14.329.328.461.39 1.977.922l1.617.57.016.602c.016.578-.016 2.297-.047 2.328-.008.008-.75.281-1.656.602-1.992.718-2.102.804-2.531 2.047-.149.43-.438 1.14-.657 1.593-.344.727-.39.883-.39 1.328 0 .477.039.594.718 2.024l.727 1.515-.219.243a18.455 18.455 0 01-1.437 1.46l-.446.383-1.508-.718c-1.437-.68-1.538-.72-2.023-.72-.445.009-.61.056-1.328.392a18.25 18.25 0 01-1.602.664c-.64.218-.843.328-1.14.617-.328.328-.39.46-.922 1.96l-.57 1.61-.735.04c-.406.023-1.062.023-1.469 0l-.734-.04-.57-1.61c-.531-1.5-.594-1.632-.922-1.96-.297-.29-.5-.399-1.14-.617a17.902 17.902 0 01-1.602-.664c-.727-.344-.875-.391-1.328-.391-.477 0-.594.047-2.024.719l-1.508.718-.445-.382a18.44 18.44 0 01-1.437-1.461l-.22-.242.727-1.516c.68-1.43.72-1.547.72-2.024 0-.445-.048-.601-.392-1.328a17.649 17.649 0 01-.656-1.593c-.43-1.243-.539-1.329-2.531-2.047a66.527 66.527 0 01-1.656-.602c-.032-.031-.063-1.75-.047-2.328l.015-.602 1.625-.57c1.508-.531 1.641-.594 1.97-.922.288-.297.398-.5.616-1.14a17.9 17.9 0 01.664-1.602c.344-.727.391-.883.391-1.328 0-.477-.039-.594-.719-2.024l-.718-1.507.507-.57c.274-.313.75-.782 1.047-1.047l.54-.477 1.515.719c1.422.68 1.539.718 2.016.718.445.008.601-.039 1.289-.375.43-.203 1.172-.507 1.64-.68 1.258-.445 1.336-.538 2.063-2.585l.57-1.617.64-.032c.345-.015.79-.015.977 0 .188.008.563.024.828.024z"/><path d="M18.367 11.805a7.946 7.946 0 00-6.219 6.445c-.601 3.438 1.164 6.922 4.29 8.469.437.218 1.14.484 1.57.601.687.18.93.203 1.992.203 1.062 0 1.304-.023 1.992-.203 4.906-1.304 7.39-6.742 5.133-11.265a7.94 7.94 0 00-8.758-4.25zm2.687 3.468c1.133.29 2.274 1.157 2.836 2.157 1.235 2.187.328 5.054-1.953 6.156-3.414 1.648-7.172-1.43-6.234-5.102.21-.82.539-1.382 1.21-2.047.868-.859 1.837-1.265 3.048-1.273.351-.008.843.047 1.093.11z"/></g><defs><clipPath id="clip0_1949_145"><path fill="#fff" d="M0 0h40v40H0z"/></clipPath></defs></svg>