<svg width="40" height="40" fill="none" xmlns="http://www.w3.org/2000/svg"><g clip-path="url(#clip0_1949_137)" fill="#4C4C4C"><path d="M18.695.117c-1.53.274-2.633.86-4.07 2.149-1.016.922-2.21 1.398-3.5 1.406-1.031 0-2.422.328-3.313.781-1.351.68-2.687 2.016-3.359 3.36-.453.89-.781 2.28-.781 3.312a5.077 5.077 0 01-1.164 3.211c-1.14 1.352-1.383 1.688-1.735 2.422C.195 17.945.047 18.633.047 20c0 1.336.148 2.031.68 3.164.367.781.757 1.344 1.476 2.133 1.016 1.11 1.367 1.977 1.469 3.602.094 1.515.351 2.5.906 3.515.703 1.274 1.945 2.477 3.234 3.133.883.453 2.282.781 3.313.781 1.29.008 2.508.492 3.508 1.406.805.735 1.328 1.11 1.969 1.438 1.476.75 3.07.992 4.671.71 1.532-.265 2.696-.866 4.008-2.07 1.125-1.03 1.977-1.382 3.649-1.484 2.297-.148 3.867-.828 5.25-2.281 1.414-1.469 2-2.883 2.148-5.11.102-1.687.445-2.515 1.524-3.71 1-1.102 1.562-2.094 1.898-3.344.172-.64.195-.914.195-1.883s-.023-1.242-.195-1.883c-.352-1.297-.914-2.273-2.016-3.484-.914-1-1.398-2.219-1.406-3.508 0-1.14-.36-2.547-.906-3.531-.805-1.477-2.336-2.836-3.781-3.383-.82-.312-1.61-.469-2.711-.539-1.672-.102-2.524-.453-3.649-1.484-.968-.891-1.765-1.391-2.765-1.75-1.172-.414-2.625-.54-3.82-.32zm2.36 2.344c.812.172 1.703.633 2.406 1.258.969.851 1.445 1.187 2.203 1.555.922.453 1.79.656 3.078.742.586.039 1.242.125 1.453.18a5.134 5.134 0 013.524 3.367c.14.46.218.914.265 1.695.086 1.328.29 2.164.782 3.156.398.805.586 1.07 1.515 2.125 1.828 2.086 1.828 4.82-.008 6.93-.93 1.062-1.109 1.32-1.507 2.117-.493.992-.696 1.828-.782 3.156-.132 2.086-.843 3.414-2.336 4.399-.82.539-1.593.758-2.906.843-1.328.086-2.164.29-3.156.782-.805.398-1.07.586-2.125 1.515-2.078 1.828-4.844 1.828-6.922 0-1.055-.93-1.32-1.117-2.125-1.515-.992-.492-1.828-.696-3.156-.782-.781-.046-1.235-.125-1.695-.265a5.134 5.134 0 01-3.368-3.524c-.054-.21-.14-.867-.18-1.453-.085-1.328-.296-2.164-.78-3.156-.4-.805-.587-1.07-1.516-2.125-1.828-2.078-1.828-4.836 0-6.93.883-1.007 1.195-1.453 1.554-2.195.454-.93.657-1.789.743-3.078.101-1.508.304-2.164.968-3.086.985-1.383 2.266-2.031 4.274-2.156 2.219-.14 3.39-.649 5.273-2.297 1.32-1.156 2.914-1.594 4.524-1.258z"/><path d="M18.867 8.258c-3.687.437-6.734 2.281-8.703 5.265a11.899 11.899 0 00-1.773 4.407c-.204 1.078-.204 3.062 0 4.14a11.842 11.842 0 009.539 9.54c1.078.203 3.062.203 4.14 0a11.842 11.842 0 009.54-9.54c.203-1.078.203-3.062 0-4.14-.946-5.078-4.962-8.922-10.047-9.61-.75-.101-2.11-.133-2.696-.062zm2.54 2.398a9.483 9.483 0 017.007 5.086c.75 1.485.992 2.555.992 4.258 0 1.313-.117 2.07-.476 3.086-1.149 3.195-3.735 5.46-7.07 6.18-.907.203-2.82.195-3.735 0a9.806 9.806 0 01-5.742-3.68c-.805-1.07-1.508-2.773-1.719-4.156-.695-4.586 1.992-8.93 6.453-10.422 1.313-.438 2.86-.563 4.29-.352z"/><path d="M21.406 18.79l-3.086 3.085-1.445-1.445-1.445-1.446-.82.82-.82.821 2.288 2.29 2.281 2.28 3.907-3.906c2.148-2.148 3.906-3.945 3.906-3.984 0-.102-1.5-1.602-1.602-1.602-.047 0-1.468 1.39-3.164 3.086z"/></g><defs><clipPath id="clip0_1949_137"><path fill="#fff" d="M0 0h40v40H0z"/></clipPath></defs></svg>