<svg width="72" height="71" fill="none" xmlns="http://www.w3.org/2000/svg"><path d="M8.238 9.083C5.81 9.61 3.44 11.468 2.302 13.73c-1.76 3.52-1.122 7.5 1.65 10.274 1.526 1.526 3.204 2.316 5.561 2.607 3.44.416 6.407 2.233 8.057 4.965.583.957 1.387 3.23 1.387 3.924s-.763 2.843-1.373 3.883c-.666 1.15-2.371 2.857-3.522 3.522-1.193.694-3.051 1.304-4.549 1.484-2.357.291-4.035 1.082-5.56 2.607-3.481 3.48-3.523 9-.084 12.425 1.706 1.692 3.523 2.524 5.825 2.663 2.51.138 4.853-.75 6.656-2.524 1.595-1.567 2.385-3.245 2.69-5.644.416-3.44 2.233-6.407 4.965-8.057 1.095-.666 3.092-1.317 4.59-1.498.665-.083 1.567-.263 1.997-.402 2.648-.818 4.978-3.162 5.838-5.893.43-1.373.43-3.758 0-5.131a9.103 9.103 0 00-2.26-3.675c-1.54-1.526-3.273-2.344-5.575-2.621-1.498-.18-3.495-.832-4.59-1.498-1.734-1.04-3.426-2.995-4.119-4.756-.402-.985-.832-2.593-.832-3.12-.014-.902-.444-2.413-.998-3.536-1.803-3.564-5.852-5.492-9.818-4.646zm3.536 2.219c2.579.68 4.576 2.87 4.936 5.436.694 4.909 2.746 8.32 6.213 10.317.458.264.846.5.846.54 0 .043-.277.25-.624.459-.957.61-1.886 1.511-2.496 2.44-.305.458-.583.832-.624.832-.042 0-.278-.374-.541-.832-1.997-3.467-5.408-5.519-10.317-6.212-2.566-.36-4.757-2.358-5.436-4.937-1.234-4.743 3.3-9.277 8.043-8.043zm17.75 17.75c3.55.929 5.755 4.562 4.853 8.043-.68 2.58-2.87 4.576-5.436 4.937-1.941.277-3.855.804-5.13 1.442-4.05 1.997-6.352 5.491-7.1 10.789-.361 2.565-2.358 4.756-4.937 5.435-4.743 1.235-9.277-3.3-8.043-8.043.68-2.579 2.87-4.576 5.436-4.936 5.297-.75 8.792-3.051 10.788-7.1.638-1.276 1.165-3.19 1.443-5.131.526-3.786 4.423-6.393 8.126-5.436z" fill="#4C4C4C"/><path d="M9.14 13.438a4.687 4.687 0 00-2.982 2.44c-.264.569-.333.915-.333 1.872-.014 1.082.028 1.248.458 2.052.526.971.97 1.387 2.01 1.942.597.305.888.36 1.886.36.999 0 1.29-.055 1.886-.36 1.04-.555 1.484-.97 2.01-1.942.43-.804.472-.97.459-2.052 0-.998-.056-1.29-.361-1.886-.54-1.04-.97-1.484-1.9-1.983-.901-.471-2.274-.68-3.134-.444zm1.913 2.288c1.428.596 1.775 2.454.665 3.563-1.553 1.567-4.104.167-3.702-2.024.25-1.304 1.775-2.08 3.037-1.54zM26.89 31.188a4.688 4.688 0 00-2.982 2.44c-.264.569-.333.915-.333 1.872-.014 1.082.028 1.248.457 2.053.527.97.971 1.386 2.011 1.94.597.306.888.361 1.886.361.999 0 1.29-.055 1.886-.36 1.04-.555 1.484-.97 2.01-1.941.43-.805.472-.971.458-2.053 0-.998-.055-1.29-.36-1.886-.54-1.04-.97-1.483-1.9-1.983-.901-.471-2.274-.68-3.134-.444zm1.913 2.288c1.428.596 1.775 2.454.665 3.563-.9.902-2.177.902-3.078 0-1.72-1.705.18-4.506 2.413-3.563zM9.14 48.938a4.687 4.687 0 00-2.982 2.44c-.264.569-.333.915-.333 1.872-.014 1.082.028 1.248.458 2.053.526.97.97 1.386 2.01 1.94.597.306.888.361 1.886.361.999 0 1.29-.055 1.886-.36 1.04-.555 1.484-.97 2.01-1.941.43-.805.472-.971.459-2.053 0-.998-.056-1.29-.361-1.886-.54-1.04-.97-1.483-1.9-1.983-.901-.471-2.274-.68-3.134-.444zm1.913 2.288c1.428.596 1.775 2.454.665 3.563-.9.902-2.177.902-3.078 0-1.72-1.705.18-4.506 2.413-3.563zM41.519 9.083c-2.427.527-4.798 2.385-5.935 4.646-1.762 3.522-1.124 7.502 1.65 10.275 1.525 1.526 3.203 2.316 5.56 2.607 3.44.416 6.407 2.233 8.058 4.965.582.957 1.386 3.23 1.386 3.924s-.763 2.843-1.373 3.883c-.665 1.15-2.371 2.857-3.522 3.522-1.193.694-3.05 1.304-4.548 1.484-2.358.291-4.036 1.082-5.561 2.607-3.48 3.48-3.522 9-.083 12.425 1.705 1.692 3.522 2.524 5.824 2.663 2.51.138 4.853-.75 6.656-2.524 1.595-1.567 2.385-3.245 2.69-5.644.416-3.44 2.233-6.407 4.965-8.057 1.095-.666 3.092-1.317 4.59-1.498.666-.083 1.567-.263 1.997-.402 2.648-.818 4.978-3.162 5.838-5.893.43-1.373.43-3.758 0-5.131a9.103 9.103 0 00-2.26-3.675c-1.54-1.526-3.273-2.344-5.575-2.621-1.498-.18-3.495-.832-4.59-1.498-1.734-1.04-3.425-2.995-4.119-4.756-.402-.985-.832-2.593-.832-3.12-.014-.902-.444-2.413-.998-3.536-1.803-3.564-5.852-5.492-9.818-4.646zm3.536 2.219c2.58.68 4.576 2.87 4.937 5.436.693 4.909 2.745 8.32 6.212 10.317.458.264.846.5.846.54 0 .043-.277.25-.624.459-.957.61-1.886 1.511-2.496 2.44-.305.458-.583.832-.624.832-.042 0-.277-.374-.54-.832-1.998-3.467-5.41-5.519-10.318-6.212-2.566-.36-4.757-2.358-5.436-4.937-1.234-4.743 3.3-9.277 8.043-8.043zm17.75 17.75c3.55.929 5.755 4.562 4.854 8.043-.68 2.58-2.871 4.576-5.437 4.937-1.94.277-3.855.804-5.13 1.442-4.05 1.997-6.352 5.491-7.1 10.789-.36 2.565-2.358 4.756-4.937 5.435-4.743 1.235-9.277-3.3-8.043-8.043.68-2.579 2.87-4.576 5.436-4.936 5.297-.75 8.792-3.051 10.789-7.1.637-1.276 1.164-3.19 1.442-5.131.527-3.786 4.423-6.393 8.126-5.436z" fill="#4C4C4C"/><path d="M42.42 13.438a4.687 4.687 0 00-2.981 2.44c-.264.569-.333.915-.333 1.872-.014 1.082.028 1.248.458 2.052.527.971.97 1.387 2.01 1.942.597.305.888.36 1.887.36.998 0 1.29-.055 1.885-.36 1.04-.555 1.484-.97 2.011-1.942.43-.804.472-.97.458-2.052 0-.998-.056-1.29-.36-1.886-.542-1.04-.971-1.484-1.9-1.983-.902-.471-2.275-.68-3.135-.444zm1.914 2.288c1.428.596 1.775 2.454.666 3.563-1.553 1.567-4.105.167-3.703-2.024.25-1.304 1.775-2.08 3.037-1.54zM60.17 31.188a4.687 4.687 0 00-2.981 2.44c-.264.569-.333.915-.333 1.872-.014 1.082.028 1.248.458 2.053.527.97.97 1.386 2.01 1.94.597.306.888.361 1.887.361.998 0 1.29-.055 1.885-.36 1.04-.555 1.484-.97 2.011-1.941.43-.805.472-.971.458-2.053 0-.998-.056-1.29-.36-1.886-.542-1.04-.971-1.483-1.9-1.983-.902-.471-2.275-.68-3.135-.444zm1.914 2.288c1.428.596 1.775 2.454.666 3.563-.902.902-2.177.902-3.079 0-1.72-1.705.18-4.506 2.413-3.563zM42.42 48.938a4.687 4.687 0 00-2.981 2.44c-.264.569-.333.915-.333 1.872-.014 1.082.028 1.248.458 2.053.527.97.97 1.386 2.01 1.94.597.306.888.361 1.887.361.998 0 1.29-.055 1.885-.36 1.04-.555 1.484-.97 2.011-1.941.43-.805.472-.971.458-2.053 0-.998-.056-1.29-.36-1.886-.542-1.04-.971-1.483-1.9-1.983-.902-.471-2.275-.68-3.135-.444zm1.914 2.288c1.428.596 1.775 2.454.666 3.563-.902.902-2.177.902-3.079 0-1.72-1.705.18-4.506 2.413-3.563z" fill="#4C4C4C"/></svg>