<svg xmlns="http://www.w3.org/2000/svg" width="11" height="px" viewBox="0 0 11 11"><path d="M9.3 3.05a2.225 2.225 0 00-.882-1.257c-.55-.379-1.18-.512-1.727-.594a7.736 7.736 0 00-2.09-.05c-.613.078-1.07.195-1.492.386-.82.38-1.316.992-1.464 1.82-.075.403-.125.766-.153 1.11-.066.8-.004 1.512.184 2.168.183.64.508 1.097.984 1.398.121.078.277.133.43.188.074.027.148.05.21.082v1.293c0 .168.138.304.305.304a.311.311 0 00.215-.085l1.196-1.16c.05-.06.05-.06.105-.063a34.84 34.84 0 001.238-.047c.504-.027 1.082-.074 1.633-.3.5-.212.867-.544 1.086-.99a4.25 4.25 0 00.414-1.538c.09-1.004.028-1.875-.191-2.664zM7.22 6.872a1.057 1.057 0 01-.508.422.583.583 0 01-.465-.016C4.97 6.738 3.965 5.887 3.305 4.66c-.137-.25-.23-.527-.34-.793-.024-.054-.024-.117-.031-.18.007-.43.34-.671.671-.746a.354.354 0 01.336.11c.262.25.47.539.625.863.07.14.04.27-.078.375l-.074.063c-.266.199-.305.347-.164.648.242.512.64.855 1.156 1.066a.307.307 0 00.367-.082c.016-.015.032-.027.043-.046.204-.34.497-.305.77-.11.18.125.355.262.531.39.27.2.266.384.102.653zm-1.532-3.52c-.07 0-.136.008-.207.02a.207.207 0 01-.238-.176.207.207 0 01.172-.238 1.647 1.647 0 011.918 1.621c0 .094-.008.188-.02.277a.212.212 0 01-.207.172H7.07a.211.211 0 01-.172-.242 1.229 1.229 0 00-1.21-1.434zm.915 1.364a.21.21 0 01-.211.207.21.21 0 01-.211-.207.628.628 0 00-.625-.63.21.21 0 110-.418 1.05 1.05 0 011.047 1.048zm1.41.254a.213.213 0 01-.207.164c-.016 0-.032 0-.047-.004a.209.209 0 01-.156-.25 1.851 1.851 0 00-2.21-2.215.21.21 0 01-.255-.156.21.21 0 01.16-.25c.164-.04.332-.059.504-.059a2.267 2.267 0 012.21 2.77zm0 0"/></svg>