<svg xmlns="http://www.w3.org/2000/svg" width="11" height="px" viewBox="0 0 11 11"><path d="M10.488 8.066c-.414-.742-1.472-1.632-1.91-2.02a.282.282 0 01-.023-.405c.836-.899 1.504-1.93 1.734-2.555a.426.426 0 00-.406-.566h-.86c-.285 0-.449.101-.527.265-.695 1.422-1.293 2.04-1.71 2.399a.362.362 0 01-.598-.274V3.016a.476.476 0 00-.477-.477l-1.574-.02a.24.24 0 00-.192.383l.262.371a.739.739 0 01.148.45v1.675c0 .293-.355.434-.566.23-.707-.69-1.324-2.105-1.547-2.78a.475.475 0 00-.453-.328H.941c-.32 0-.55.3-.464.605.773 2.715 2.363 5.3 5.191 5.582.281.027.52-.2.52-.477v-.882c0-.25.199-.47.453-.473.011-.004.02-.004.027-.004.75 0 1.59 1.09 1.883 1.602a.474.474 0 00.41.234h1.14a.434.434 0 00.387-.64zm0 0"/></svg>