<svg xmlns="http://www.w3.org/2000/svg" width="11" height="px" viewBox="0 0 11 11"><path d="M5.5 1.102A4.398 4.398 0 001.102 5.5c0 .824.23 1.594.625 2.254L1.14 9.898l2.187-.574A4.398 4.398 0 105.5 1.101zM3.992 3.449c.074 0 .149-.004.211 0 .078.004.164.008.246.192.098.214.309.754.336.804.027.055.047.121.008.192-.035.074-.055.117-.11.183-.054.063-.113.14-.163.188-.055.054-.11.117-.047.226.062.106.28.465.605.754.418.371.77.485.879.54.11.054.172.046.234-.028a4.38 4.38 0 00.344-.426c.074-.11.145-.09.246-.054.102.035.637.3.746.355.11.055.18.082.207.125.028.047.028.266-.062.52-.09.253-.535.5-.734.515-.204.02-.391.09-1.31-.27C4.52 6.829 3.82 5.692 3.767 5.618c-.055-.07-.446-.59-.446-1.125s.285-.8.383-.91a.396.396 0 01.29-.133zm0 0"/></svg>