<svg width="17" height="10" viewBox="0 0 17 10" fill="none" xmlns="http://www.w3.org/2000/svg">
<g clip-path="url(#clip0_2128_4388)">
<path d="M1.95404 2.53572L7.90404 8.55357C7.97487 8.625 8.05161 8.67548 8.13424 8.705C8.21688 8.735 8.30543 8.75 8.39987 8.75C8.49431 8.75 8.58286 8.735 8.66549 8.705C8.74813 8.67548 8.82487 8.625 8.8957 8.55357L14.8634 2.53571C15.0287 2.36905 15.1113 2.16071 15.1113 1.91071C15.1113 1.66071 15.0228 1.44643 14.8457 1.26786C14.6686 1.08929 14.462 1 14.2259 1C13.9898 1 13.7832 1.08929 13.6061 1.26786L8.39987 6.51786L3.19362 1.26786C3.02834 1.10119 2.82481 1.01786 2.58304 1.01786C2.34079 1.01786 2.13112 1.10714 1.95404 1.28572C1.77695 1.46429 1.68841 1.67262 1.68841 1.91072C1.68841 2.14881 1.77695 2.35714 1.95404 2.53572Z" fill="#F57520"/>
</g>
<defs>
<clipPath id="clip0_2128_4388">
<rect width="10" height="17" fill="white" transform="matrix(-4.37114e-08 -1 -1 4.37114e-08 17 10)"/>
</clipPath>
</defs>
</svg>
