<svg width="21" height="13" viewBox="0 0 21 13" fill="none" xmlns="http://www.w3.org/2000/svg">
<g clip-path="url(#clip0_8199_4788)">
<path d="M18.1712 8.04574L11.0848 0.913469C11.0005 0.828813 10.9091 0.768989 10.8106 0.733998C10.7122 0.698442 10.6068 0.680664 10.4943 0.680664C10.3818 0.680664 10.2764 0.698442 10.1779 0.733998C10.0795 0.768989 9.98812 0.828813 9.90375 0.913469L2.79624 8.04574C2.5994 8.24327 2.50098 8.49019 2.50098 8.78648C2.50098 9.08278 2.60643 9.33675 2.81733 9.54839C3.02824 9.76003 3.2743 9.86585 3.5555 9.86585C3.83671 9.86585 4.08277 9.76003 4.29367 9.54839L10.4943 3.32617L16.6949 9.54839C16.8918 9.74592 17.1342 9.84469 17.4221 9.84469C17.7106 9.84469 17.9603 9.73887 18.1712 9.52723C18.3822 9.31558 18.4876 9.06867 18.4876 8.78648C18.4876 8.5043 18.3822 8.25738 18.1712 8.04574Z" fill="white"/>
</g>
<defs>
<clipPath id="clip0_8199_4788">
<rect width="11.8519" height="20.2469" fill="white" transform="matrix(-4.37114e-08 1 1 4.37114e-08 0.371094 0.320801)"/>
</clipPath>
</defs>
</svg>
