<svg width="18" height="10" viewBox="0 0 18 10" fill="none" xmlns="http://www.w3.org/2000/svg">
<g clip-path="url(#clip0_1972_406)">
<path d="M2.17519 3.48213L8.4752 9.49998C8.5502 9.57141 8.63144 9.62189 8.71895 9.65141C8.80645 9.68141 8.9002 9.69641 9.0002 9.69641C9.10019 9.69641 9.19394 9.68141 9.28145 9.65141C9.36895 9.62189 9.4502 9.57141 9.5252 9.49998L15.8439 3.48213C16.0189 3.31546 16.1064 3.10713 16.1064 2.85713C16.1064 2.60713 16.0127 2.39284 15.8252 2.21427C15.6377 2.0357 15.4189 1.94641 15.1689 1.94641C14.9189 1.94641 14.7002 2.0357 14.5127 2.21427L9.00019 7.46427L3.48769 2.21427C3.31269 2.0476 3.09719 1.96427 2.84119 1.96427C2.58469 1.96427 2.36269 2.05355 2.17519 2.23213C1.98769 2.4107 1.89394 2.61903 1.89394 2.85713C1.89394 3.09522 1.98769 3.30355 2.17519 3.48213Z" fill="#777777"/>
</g>
<defs>
<clipPath id="clip0_1972_406">
<rect width="10" height="18" fill="white" transform="matrix(-4.37114e-08 -1 -1 4.37114e-08 18 10)"/>
</clipPath>
</defs>
</svg>
