<svg width="41" height="24" viewBox="0 0 41 24" fill="none" xmlns="http://www.w3.org/2000/svg">
<g clip-path="url(#clip0_8016_3272)">
<path d="M36.0467 15.6428L21.6967 1.19994C21.5259 1.02852 21.3408 0.907373 21.1415 0.836516C20.9422 0.764516 20.7287 0.728516 20.5009 0.728516C20.2731 0.728516 20.0596 0.764516 19.8603 0.836516C19.661 0.907373 19.4759 1.02852 19.3051 1.19994L4.91237 15.6428C4.51376 16.0428 4.31445 16.5428 4.31445 17.1428C4.31445 17.7428 4.52799 18.2571 4.95508 18.6857C5.38216 19.1142 5.88042 19.3285 6.44987 19.3285C7.01931 19.3285 7.51758 19.1142 7.94466 18.6857L20.5009 6.08566L33.0572 18.6857C33.4558 19.0857 33.9466 19.2857 34.5297 19.2857C35.114 19.2857 35.6197 19.0714 36.0467 18.6428C36.4738 18.2142 36.6874 17.7142 36.6874 17.1428C36.6874 16.5714 36.4738 16.0714 36.0467 15.6428Z" fill="white"/>
</g>
<defs>
<clipPath id="clip0_8016_3272">
<rect width="24" height="41" fill="white" transform="matrix(-4.37114e-08 1 1 4.37114e-08 0 0)"/>
</clipPath>
</defs>
</svg>
