<?xml version="1.0" encoding="UTF-8"?>
<svg xmlns="http://www.w3.org/2000/svg" xmlns:xlink="http://www.w3.org/1999/xlink" width="11px" height="px" viewBox="0 0 11 11" version="1.1">
<g id="surface1">
<path style=" stroke:none;fill-rule:nonzero;fill:rgb(0%,0%,0%);fill-opacity:1;" d="M 5.5 0.457031 C 4.109375 0.457031 2.980469 1.585938 2.980469 2.980469 C 2.980469 4.371094 4.109375 5.5 5.5 5.5 C 6.890625 5.5 8.019531 4.371094 8.019531 2.980469 C 8.019531 1.585938 6.890625 0.457031 5.5 0.457031 Z M 5.5 2.050781 C 6.011719 2.050781 6.429688 2.464844 6.429688 2.980469 C 6.429688 3.492188 6.011719 3.90625 5.5 3.90625 C 4.988281 3.90625 4.570312 3.492188 4.570312 2.980469 C 4.570312 2.464844 4.988281 2.050781 5.5 2.050781 Z M 7.605469 5.511719 C 7.425781 5.503906 7.246094 5.546875 7.089844 5.640625 C 6.140625 6.214844 4.859375 6.214844 3.910156 5.640625 C 3.476562 5.378906 2.914062 5.519531 2.652344 5.953125 C 2.527344 6.164062 2.488281 6.410156 2.546875 6.648438 C 2.605469 6.886719 2.753906 7.085938 2.964844 7.210938 C 3.300781 7.414062 3.65625 7.574219 4.035156 7.691406 L 2.753906 9.015625 C 2.589844 9.199219 2.507812 9.433594 2.523438 9.679688 C 2.535156 9.921875 2.644531 10.148438 2.828125 10.308594 C 3.003906 10.464844 3.222656 10.542969 3.4375 10.542969 C 3.691406 10.542969 3.9375 10.4375 4.117188 10.242188 L 5.5 8.808594 L 6.878906 10.234375 C 7.050781 10.429688 7.300781 10.539062 7.5625 10.539062 C 7.789062 10.539062 8.003906 10.457031 8.171875 10.308594 C 8.550781 9.972656 8.585938 9.394531 8.242188 9.007812 L 6.964844 7.691406 C 7.34375 7.574219 7.703125 7.414062 8.035156 7.210938 C 8.246094 7.085938 8.394531 6.886719 8.453125 6.648438 C 8.511719 6.410156 8.472656 6.164062 8.347656 5.953125 C 8.222656 5.746094 8.023438 5.597656 7.785156 5.539062 C 7.726562 5.523438 7.664062 5.511719 7.605469 5.511719 Z M 7.605469 5.511719 "/>
</g>
</svg>
