<?xml version="1.0" encoding="UTF-8"?>
<svg xmlns="http://www.w3.org/2000/svg" xmlns:xlink="http://www.w3.org/1999/xlink" width="11px" height="11px" viewBox="0 0 11 11" version="1.1">
<g id="surface1">
<path style=" stroke:none;fill-rule:nonzero;fill:rgb(0%,0%,0%);fill-opacity:1;" d="M 10.148438 1.441406 C 9.984375 1.300781 9.726562 1.28125 9.457031 1.390625 C 9.175781 1.503906 1.480469 4.804688 1.167969 4.9375 C 1.109375 4.957031 0.613281 5.144531 0.664062 5.558594 C 0.710938 5.929688 1.109375 6.085938 1.15625 6.101562 L 3.113281 6.773438 C 3.246094 7.203125 3.722656 8.796875 3.828125 9.140625 C 3.894531 9.351562 4.003906 9.628906 4.191406 9.6875 C 4.355469 9.75 4.519531 9.691406 4.628906 9.609375 L 5.824219 8.5 L 7.753906 10.003906 L 7.800781 10.035156 C 7.929688 10.089844 8.058594 10.121094 8.175781 10.121094 C 8.269531 10.121094 8.359375 10.101562 8.445312 10.066406 C 8.734375 9.949219 8.847656 9.675781 8.859375 9.644531 L 10.304688 2.144531 C 10.390625 1.746094 10.269531 1.542969 10.148438 1.441406 Z M 4.839844 7.039062 L 4.179688 8.800781 L 3.519531 6.601562 L 8.578125 2.859375 Z M 4.839844 7.039062 "/>
</g>
</svg>
