<?xml version="1.0" encoding="UTF-8"?>
<svg xmlns="http://www.w3.org/2000/svg" xmlns:xlink="http://www.w3.org/1999/xlink" width="11px" height="px" viewBox="0 0 11 11" version="1.1">
<g id="surface1">
<path style=" stroke:none;fill-rule:nonzero;fill:rgb(0%,0%,0%);fill-opacity:1;" d="M 9.300781 3.050781 C 9.148438 2.515625 8.851562 2.09375 8.417969 1.792969 C 7.867188 1.414062 7.238281 1.28125 6.691406 1.199219 C 5.9375 1.085938 5.253906 1.070312 4.601562 1.148438 C 3.988281 1.226562 3.53125 1.34375 3.109375 1.535156 C 2.289062 1.914062 1.792969 2.527344 1.644531 3.355469 C 1.570312 3.757812 1.519531 4.121094 1.492188 4.464844 C 1.425781 5.265625 1.488281 5.976562 1.675781 6.632812 C 1.859375 7.273438 2.183594 7.730469 2.660156 8.03125 C 2.78125 8.109375 2.9375 8.164062 3.089844 8.21875 C 3.164062 8.246094 3.238281 8.269531 3.300781 8.300781 L 3.300781 9.59375 C 3.300781 9.761719 3.4375 9.898438 3.605469 9.898438 C 3.6875 9.898438 3.761719 9.867188 3.820312 9.8125 L 5.015625 8.652344 C 5.066406 8.59375 5.066406 8.59375 5.121094 8.589844 C 5.527344 8.582031 5.945312 8.566406 6.359375 8.542969 C 6.863281 8.515625 7.441406 8.46875 7.992188 8.242188 C 8.492188 8.03125 8.859375 7.699219 9.078125 7.253906 C 9.308594 6.789062 9.441406 6.285156 9.492188 5.714844 C 9.582031 4.710938 9.519531 3.839844 9.300781 3.050781 Z M 7.21875 6.871094 C 7.101562 7.066406 6.921875 7.203125 6.710938 7.292969 C 6.554688 7.355469 6.398438 7.34375 6.246094 7.277344 C 4.96875 6.738281 3.964844 5.886719 3.304688 4.660156 C 3.167969 4.410156 3.074219 4.132812 2.964844 3.867188 C 2.941406 3.8125 2.941406 3.75 2.933594 3.6875 C 2.941406 3.257812 3.273438 3.015625 3.605469 2.941406 C 3.734375 2.914062 3.847656 2.957031 3.941406 3.050781 C 4.203125 3.300781 4.410156 3.589844 4.566406 3.914062 C 4.636719 4.054688 4.605469 4.183594 4.488281 4.289062 C 4.464844 4.308594 4.4375 4.332031 4.414062 4.351562 C 4.148438 4.550781 4.109375 4.699219 4.25 5 C 4.492188 5.511719 4.890625 5.855469 5.40625 6.066406 C 5.542969 6.125 5.671875 6.09375 5.773438 5.984375 C 5.789062 5.96875 5.804688 5.957031 5.816406 5.9375 C 6.019531 5.597656 6.3125 5.632812 6.585938 5.828125 C 6.765625 5.953125 6.941406 6.089844 7.117188 6.21875 C 7.386719 6.417969 7.382812 6.601562 7.21875 6.871094 Z M 5.6875 3.351562 C 5.617188 3.351562 5.550781 3.359375 5.480469 3.371094 C 5.367188 3.390625 5.261719 3.3125 5.242188 3.195312 C 5.222656 3.082031 5.300781 2.976562 5.414062 2.957031 C 5.503906 2.941406 5.59375 2.933594 5.6875 2.933594 C 6.59375 2.933594 7.332031 3.671875 7.332031 4.578125 C 7.332031 4.671875 7.324219 4.765625 7.3125 4.855469 C 7.292969 4.957031 7.203125 5.027344 7.105469 5.027344 C 7.09375 5.027344 7.082031 5.027344 7.070312 5.027344 C 6.957031 5.007812 6.878906 4.898438 6.898438 4.785156 C 6.910156 4.71875 6.914062 4.648438 6.914062 4.578125 C 6.914062 3.902344 6.363281 3.351562 5.6875 3.351562 Z M 6.601562 4.714844 C 6.601562 4.828125 6.507812 4.921875 6.390625 4.921875 C 6.273438 4.921875 6.179688 4.828125 6.179688 4.714844 C 6.179688 4.367188 5.898438 4.085938 5.554688 4.085938 C 5.4375 4.085938 5.34375 3.992188 5.34375 3.875 C 5.34375 3.761719 5.4375 3.667969 5.554688 3.667969 C 6.128906 3.667969 6.601562 4.136719 6.601562 4.714844 Z M 8.011719 4.96875 C 7.988281 5.066406 7.902344 5.132812 7.804688 5.132812 C 7.789062 5.132812 7.773438 5.132812 7.757812 5.128906 C 7.644531 5.101562 7.574219 4.988281 7.601562 4.878906 C 7.632812 4.742188 7.648438 4.605469 7.648438 4.464844 C 7.648438 3.449219 6.820312 2.617188 5.800781 2.617188 C 5.660156 2.617188 5.523438 2.632812 5.390625 2.664062 C 5.277344 2.691406 5.164062 2.621094 5.136719 2.507812 C 5.113281 2.394531 5.183594 2.28125 5.296875 2.257812 C 5.460938 2.21875 5.628906 2.199219 5.800781 2.199219 C 7.050781 2.199219 8.066406 3.214844 8.066406 4.464844 C 8.066406 4.636719 8.046875 4.804688 8.011719 4.96875 Z M 8.011719 4.96875 "/>
</g>
</svg>
