<?xml version="1.0" encoding="UTF-8"?>
<svg xmlns="http://www.w3.org/2000/svg" xmlns:xlink="http://www.w3.org/1999/xlink" width="11px" height="px" viewBox="0 0 11 11" version="1.1">
<g id="surface1">
<path style=" stroke:none;fill-rule:nonzero;fill:rgb(0%,0%,0%);fill-opacity:1;" d="M 10.488281 8.066406 C 10.074219 7.324219 9.015625 6.433594 8.578125 6.046875 C 8.457031 5.941406 8.445312 5.757812 8.554688 5.640625 C 9.390625 4.742188 10.058594 3.710938 10.289062 3.085938 C 10.390625 2.8125 10.179688 2.519531 9.882812 2.519531 L 9.023438 2.519531 C 8.738281 2.519531 8.574219 2.621094 8.496094 2.785156 C 7.800781 4.207031 7.203125 4.824219 6.785156 5.183594 C 6.554688 5.386719 6.1875 5.21875 6.1875 4.910156 C 6.1875 4.320312 6.1875 3.554688 6.1875 3.015625 C 6.1875 2.75 5.972656 2.539062 5.710938 2.539062 L 4.136719 2.519531 C 3.941406 2.519531 3.828125 2.746094 3.945312 2.902344 L 4.207031 3.273438 C 4.304688 3.402344 4.355469 3.558594 4.355469 3.722656 L 4.355469 5.398438 C 4.355469 5.691406 4 5.832031 3.789062 5.628906 C 3.082031 4.9375 2.464844 3.523438 2.242188 2.847656 C 2.179688 2.652344 1.996094 2.519531 1.789062 2.519531 L 0.941406 2.519531 C 0.621094 2.519531 0.390625 2.820312 0.476562 3.125 C 1.25 5.839844 2.839844 8.425781 5.667969 8.707031 C 5.949219 8.734375 6.1875 8.507812 6.1875 8.230469 L 6.1875 7.347656 C 6.1875 7.097656 6.386719 6.878906 6.640625 6.875 C 6.652344 6.871094 6.660156 6.871094 6.667969 6.871094 C 7.417969 6.871094 8.257812 7.960938 8.550781 8.472656 C 8.632812 8.617188 8.792969 8.707031 8.960938 8.707031 L 10.101562 8.707031 C 10.433594 8.707031 10.648438 8.355469 10.488281 8.066406 Z M 10.488281 8.066406 "/>
</g>
</svg>
