<?xml version="1.0" encoding="UTF-8"?>
<svg xmlns="http://www.w3.org/2000/svg" xmlns:xlink="http://www.w3.org/1999/xlink" width="11px" height="px" viewBox="0 0 11 11" version="1.1">
<g id="surface1">
<path style=" stroke:none;fill-rule:nonzero;fill:rgb(0%,0%,0%);fill-opacity:1;" d="M 5.5 1.101562 C 3.070312 1.101562 1.101562 3.070312 1.101562 5.5 C 1.101562 6.324219 1.332031 7.09375 1.726562 7.753906 L 1.140625 9.898438 L 3.328125 9.324219 C 3.972656 9.6875 4.710938 9.898438 5.5 9.898438 C 7.929688 9.898438 9.898438 7.929688 9.898438 5.5 C 9.898438 3.070312 7.929688 1.101562 5.5 1.101562 Z M 3.992188 3.449219 C 4.066406 3.449219 4.140625 3.445312 4.203125 3.449219 C 4.28125 3.453125 4.367188 3.457031 4.449219 3.640625 C 4.546875 3.855469 4.757812 4.394531 4.785156 4.445312 C 4.8125 4.5 4.832031 4.566406 4.792969 4.636719 C 4.757812 4.710938 4.738281 4.753906 4.683594 4.820312 C 4.628906 4.882812 4.570312 4.960938 4.519531 5.007812 C 4.464844 5.0625 4.410156 5.125 4.472656 5.234375 C 4.535156 5.339844 4.753906 5.699219 5.078125 5.988281 C 5.496094 6.359375 5.847656 6.472656 5.957031 6.527344 C 6.066406 6.582031 6.128906 6.574219 6.191406 6.5 C 6.257812 6.429688 6.464844 6.183594 6.535156 6.074219 C 6.609375 5.964844 6.679688 5.984375 6.78125 6.019531 C 6.882812 6.054688 7.417969 6.320312 7.527344 6.375 C 7.636719 6.429688 7.707031 6.457031 7.734375 6.5 C 7.761719 6.546875 7.761719 6.765625 7.671875 7.019531 C 7.582031 7.273438 7.136719 7.519531 6.9375 7.535156 C 6.734375 7.554688 6.546875 7.625 5.628906 7.265625 C 4.519531 6.828125 3.820312 5.691406 3.765625 5.617188 C 3.710938 5.546875 3.320312 5.027344 3.320312 4.492188 C 3.320312 3.957031 3.605469 3.691406 3.703125 3.582031 C 3.804688 3.472656 3.921875 3.449219 3.992188 3.449219 Z M 3.992188 3.449219 "/>
</g>
</svg>
